<?xml version="1.0" encoding="UTF-8" standalone="no"?>
<!-- Created with Inkscape (http://www.inkscape.org/) -->

<svg
   xmlns:dc="http://purl.org/dc/elements/1.1/"
   xmlns:cc="http://creativecommons.org/ns#"
   xmlns:rdf="http://www.w3.org/1999/02/22-rdf-syntax-ns#"
   xmlns:svg="http://www.w3.org/2000/svg"
   xmlns="http://www.w3.org/2000/svg"
   xmlns:xlink="http://www.w3.org/1999/xlink"
   xmlns:sodipodi="http://sodipodi.sourceforge.net/DTD/sodipodi-0.dtd"
   xmlns:inkscape="http://www.inkscape.org/namespaces/inkscape"
   width="210mm"
   height="297mm"
   id="svg3490"
   version="1.1"
   inkscape:version="0.48.5 r10040"
   sodipodi:docname="ninja.svg">
  <defs
     id="defs3492">
    <clipPath
       clipPathUnits="userSpaceOnUse"
       id="clipPath3483">
      <path
         sodipodi:type="arc"
         style="fill:#6ea9ca;fill-opacity:1;stroke:#ffffff;stroke-width:1.5;stroke-miterlimit:4;stroke-opacity:1;stroke-dasharray:none;stroke-dashoffset:0"
         id="path3485"
         sodipodi:cx="-169.16667"
         sodipodi:cy="221.66667"
         sodipodi:rx="79.722221"
         sodipodi:ry="32.083332"
         d="m -89.44445,221.66667 a 79.722221,32.083332 0 1 1 -159.44444,0 79.722221,32.083332 0 1 1 159.44444,0 z"
         transform="matrix(0.84636917,0,0,2.1353312,-26.20637,-205.50026)" />
    </clipPath>
    <linearGradient
       inkscape:collect="always"
       xlink:href="#linearGradient3393"
       id="linearGradient3399"
       x1="-184.47133"
       y1="163.81035"
       x2="-173.90277"
       y2="204.67336"
       gradientUnits="userSpaceOnUse" />
    <linearGradient
       inkscape:collect="always"
       id="linearGradient3393">
      <stop
         style="stop-color:#ffffff;stop-opacity:1;"
         offset="0"
         id="stop3395" />
      <stop
         style="stop-color:#ffffff;stop-opacity:0;"
         offset="1"
         id="stop3397" />
    </linearGradient>
    <linearGradient
       inkscape:collect="always"
       xlink:href="#linearGradient3376"
       id="linearGradient3382"
       x1="-173.06931"
       y1="235.6333"
       x2="-173.06929"
       y2="215.65384"
       gradientUnits="userSpaceOnUse"
       gradientTransform="matrix(1,0,0,1.8876335,0,-202.66783)" />
    <linearGradient
       inkscape:collect="always"
       id="linearGradient3376">
      <stop
         style="stop-color:#ffffff;stop-opacity:1;"
         offset="0"
         id="stop3378" />
      <stop
         style="stop-color:#ffffff;stop-opacity:0;"
         offset="1"
         id="stop3380" />
    </linearGradient>
    <linearGradient
       inkscape:collect="always"
       xlink:href="#linearGradient3409"
       id="linearGradient3415"
       x1="-99.234146"
       y1="-303.68787"
       x2="-102.99422"
       y2="-319.83768"
       gradientUnits="userSpaceOnUse" />
    <linearGradient
       inkscape:collect="always"
       id="linearGradient3409">
      <stop
         style="stop-color:#ffffff;stop-opacity:1"
         offset="0"
         id="stop3411" />
      <stop
         style="stop-color:#000000;stop-opacity:0;"
         offset="1"
         id="stop3413" />
    </linearGradient>
    <linearGradient
       inkscape:collect="always"
       xlink:href="#linearGradient3419"
       id="linearGradient3425"
       x1="-325.44736"
       y1="46.918503"
       x2="-323.41495"
       y2="72.421043"
       gradientUnits="userSpaceOnUse"
       gradientTransform="translate(-0.13410785,-2.7945636)" />
    <linearGradient
       inkscape:collect="always"
       id="linearGradient3419">
      <stop
         style="stop-color:#ffffff;stop-opacity:1;"
         offset="0"
         id="stop3421" />
      <stop
         style="stop-color:#ffffff;stop-opacity:0;"
         offset="1"
         id="stop3423" />
    </linearGradient>
    <linearGradient
       y2="72.421043"
       x2="-323.41495"
       y1="46.918503"
       x1="-325.44736"
       gradientTransform="translate(-0.13410785,-2.7945636)"
       gradientUnits="userSpaceOnUse"
       id="linearGradient3541"
       xlink:href="#linearGradient3419"
       inkscape:collect="always" />
  </defs>
  <sodipodi:namedview
     id="base"
     pagecolor="#ffffff"
     bordercolor="#666666"
     borderopacity="1.0"
     inkscape:pageopacity="0.0"
     inkscape:pageshadow="2"
     inkscape:zoom="0.7"
     inkscape:cx="374.92422"
     inkscape:cy="576.56238"
     inkscape:document-units="px"
     inkscape:current-layer="layer1"
     showgrid="false"
     inkscape:window-width="1366"
     inkscape:window-height="702"
     inkscape:window-x="0"
     inkscape:window-y="27"
     inkscape:window-maximized="1" />
  <metadata
     id="metadata3495">
    <rdf:RDF>
      <cc:Work
         rdf:about="">
        <dc:format>image/svg+xml</dc:format>
        <dc:type
           rdf:resource="http://purl.org/dc/dcmitype/StillImage" />
        <dc:title />
      </cc:Work>
    </rdf:RDF>
  </metadata>
  <g
     inkscape:label="Camada 1"
     inkscape:groupmode="layer"
     id="layer1">
    <path
       sodipodi:type="arc"
       style="fill:#ffffff;fill-opacity:1;stroke:none"
       id="path3024"
       sodipodi:cx="373.25137"
       sodipodi:cy="441.72498"
       sodipodi:rx="91.418808"
       sodipodi:ry="100.51018"
       d="m 464.67018,441.72498 a 91.418808,100.51018 0 1 1 -182.83761,0 91.418808,100.51018 0 1 1 182.83761,0 z"
       transform="matrix(1.1318451,0,0,1.1318451,-49.716439,-59.249424)" />
    <path
       style="fill:#000000;stroke:#000000;stroke-width:1.13184512px;stroke-linecap:butt;stroke-linejoin:miter;stroke-opacity:1"
       d="m 383.03632,372.68633 c 3.14417,-5.71671 16.00669,-28.58341 16.00669,-28.58341 l 18.57921,7.14583 z"
       id="path3026"
       inkscape:connector-curvature="0"
       sodipodi:nodetypes="cccc" />
    <path
       inkscape:connector-curvature="0"
       id="path3030"
       d="m 387.0585,368.81082 c 6.50571,-0.49207 35.02337,-7.3267 35.02337,-7.3267 l 2.43284,14.29288 z"
       style="fill:#000000;stroke:#000000;stroke-width:1.13184512px;stroke-linecap:butt;stroke-linejoin:miter;stroke-opacity:1"
       sodipodi:nodetypes="cccc" />
    <g
       transform="matrix(1.481465,0,0,1.481465,624.02244,54.776347)"
       id="g3427"
       clip-path="url(#clipPath3483)">
      <path
         transform="matrix(0.88448749,0,0,1,-29.678021,24.061272)"
         d="m -126.14981,215.26714 c 0,17.93971 -14.61996,32.48272 -32.65459,32.48272 -18.03463,0 -32.65458,-14.54301 -32.65458,-32.48272 0,-17.93971 14.61995,-32.48272 32.65458,-32.48272 18.03463,0 32.65459,14.54301 32.65459,32.48272 z"
         sodipodi:ry="32.482719"
         sodipodi:rx="32.654583"
         sodipodi:cy="215.26714"
         sodipodi:cx="-158.8044"
         id="path3361"
         style="fill:#000000;fill-opacity:1;stroke:none"
         sodipodi:type="arc" />
      <path
         sodipodi:type="arc"
         style="fill:url(#linearGradient3399);fill-opacity:1;stroke:none"
         id="path3391"
         sodipodi:cx="-158.8044"
         sodipodi:cy="215.26714"
         sodipodi:rx="32.654583"
         sodipodi:ry="32.482719"
         d="m -126.14981,215.26714 c 0,17.93971 -14.61996,32.48272 -32.65459,32.48272 -18.03463,0 -32.65458,-14.54301 -32.65458,-32.48272 0,-17.93971 14.61995,-32.48272 32.65458,-32.48272 18.03463,0 32.65459,14.54301 32.65459,32.48272 z"
         transform="matrix(0.80493042,0,0,0.91005291,-42.312034,43.423923)" />
      <path
         sodipodi:nodetypes="ccccc"
         inkscape:connector-curvature="0"
         id="rect3365"
         d="m -192.55916,235.88038 c 13.09848,-4.71213 21.36366,-5.9072 45.19555,-1.13883 0.12374,5.33812 1.78362,12.139 0.30166,16.13002 -18.32459,-6.24459 -30.61654,-3.99693 -46.24377,0.71179 0.17994,-5.0841 -1.54483,-9.87157 0.74656,-15.70298 z"
         style="fill:url(#linearGradient3382);fill-opacity:1;stroke:none" />
      <path
         transform="matrix(1.1233987,0,0,1.6493283,20.723348,-145.58815)"
         d="m -182.30711,235.50439 c 0,0.85428 -0.38474,1.5468 -0.85933,1.5468 -0.4746,0 -0.85933,-0.69252 -0.85933,-1.5468 0,-0.85427 0.38473,-1.54679 0.85933,-1.54679 0.47459,0 0.85933,0.69252 0.85933,1.54679 z"
         sodipodi:ry="1.5467961"
         sodipodi:rx="0.85933113"
         sodipodi:cy="235.50439"
         sodipodi:cx="-183.16644"
         id="path3368"
         style="fill:#000000;fill-opacity:1;stroke:none"
         sodipodi:type="arc" />
      <path
         transform="matrix(1.1233987,0,0,1.7082329,53.497709,-159.36933)"
         sodipodi:type="arc"
         style="fill:#000000;fill-opacity:1;stroke:none"
         id="path3370"
         sodipodi:cx="-183.16644"
         sodipodi:cy="235.50439"
         sodipodi:rx="0.85933113"
         sodipodi:ry="1.5467961"
         d="m -182.30711,235.50439 c 0,0.85428 -0.38474,1.5468 -0.85933,1.5468 -0.4746,0 -0.85933,-0.69252 -0.85933,-1.5468 0,-0.85427 0.38473,-1.54679 0.85933,-1.54679 0.47459,0 0.85933,0.69252 0.85933,1.54679 z" />
      <path
         inkscape:connector-curvature="0"
         id="path3372"
         d="m -181.28064,235.91128 -0.57921,3.46232 -8.20567,-3.18897 z"
         style="fill:#000000;stroke:none" />
      <path
         style="fill:#000000;stroke:none"
         d="m -156.80847,235.91128 0.57921,3.46232 8.20567,-3.18897 z"
         id="path3374"
         inkscape:connector-curvature="0" />
      <path
         transform="matrix(1.1233987,0,0,2.120565,20.844019,-255.70088)"
         d="m -183.48868,234.41948 c 0,0.19577 -0.14428,0.35447 -0.32225,0.35447 -0.17797,0 -0.32225,-0.1587 -0.32225,-0.35447 0,-0.19577 0.14428,-0.35447 0.32225,-0.35447 0.17797,0 0.32225,0.1587 0.32225,0.35447 z"
         sodipodi:ry="0.3544741"
         sodipodi:rx="0.32224917"
         sodipodi:cy="234.41948"
         sodipodi:cx="-183.81093"
         id="path3384"
         style="fill:#ffffff;fill-opacity:1;stroke:none"
         sodipodi:type="arc" />
      <path
         sodipodi:type="arc"
         style="fill:#ffffff;fill-opacity:1;stroke:none"
         id="path3386"
         sodipodi:cx="-183.81093"
         sodipodi:cy="234.41948"
         sodipodi:rx="0.32224917"
         sodipodi:ry="0.3544741"
         d="m -183.48868,234.41948 c 0,0.19577 -0.14428,0.35447 -0.32225,0.35447 -0.17797,0 -0.32225,-0.1587 -0.32225,-0.35447 0,-0.19577 0.14428,-0.35447 0.32225,-0.35447 0.17797,0 0.32225,0.1587 0.32225,0.35447 z"
         transform="matrix(1.1233987,0,0,2.120565,53.570112,-255.70088)" />
      <path
         sodipodi:type="arc"
         style="fill:#000000;fill-opacity:1;stroke:none"
         id="path3401"
         sodipodi:cx="-158.8044"
         sodipodi:cy="215.26714"
         sodipodi:rx="32.654583"
         sodipodi:ry="32.482719"
         d="m -126.14981,215.26714 c 0,17.93971 -14.61996,32.48272 -32.65459,32.48272 -18.03463,0 -32.65458,-14.54301 -32.65458,-32.48272 0,-17.93971 14.61995,-32.48272 32.65458,-32.48272 18.03463,0 32.65459,14.54301 32.65459,32.48272 z"
         transform="matrix(1.4404226,0,0,1.6285393,60.308318,-32.006477)" />
      <rect
         transform="matrix(0.76869676,-0.63961339,0.63961339,0.76869676,0,0)"
         ry="4.4965277"
         y="57.885178"
         x="-329.16702"
         height="66.111115"
         width="8.9930553"
         id="rect3403"
         style="fill:#000000;fill-opacity:1;stroke:none" />
      <rect
         style="fill:#000000;fill-opacity:1;stroke:none"
         id="rect3405"
         width="2.8814573"
         height="21.182606"
         x="-103.61411"
         y="-330.42117"
         ry="1.4407287"
         transform="matrix(-0.59507226,-0.8036722,0.8036722,-0.59507226,0,0)" />
      <rect
         transform="matrix(-0.59507226,-0.8036722,0.8036722,-0.59507226,0,0)"
         ry="1.2250159"
         y="-328.83539"
         x="-103.3984"
         height="18.011044"
         width="2.4500318"
         id="rect3407"
         style="fill:url(#linearGradient3415);fill-opacity:1;stroke:none" />
      <rect
         style="fill:url(#linearGradient3541);fill-opacity:1;stroke:none"
         id="rect3417"
         width="8.0582333"
         height="59.238907"
         x="-328.83371"
         y="58.526718"
         ry="4.0291166"
         transform="matrix(0.76869676,-0.63961339,0.63961339,0.76869676,0,0)" />
    </g>
  </g>
</svg>
